<?xml version="1.0" encoding="UTF-8" standalone="no"?>
<svg
   xmlns:dc="http://purl.org/dc/elements/1.1/"
   xmlns:cc="http://creativecommons.org/ns#"
   xmlns:rdf="http://www.w3.org/1999/02/22-rdf-syntax-ns#"
   xmlns:svg="http://www.w3.org/2000/svg"
   xmlns="http://www.w3.org/2000/svg"
   xmlns:sodipodi="http://sodipodi.sourceforge.net/DTD/sodipodi-0.dtd"
   xmlns:inkscape="http://www.inkscape.org/namespaces/inkscape"
   id="svg"
   width="396.75961"
   height="394.16721"
   viewBox="0 0 396.75961 394.16721"
   version="1.1"
   sodipodi:docname="facebook.svg"
   inkscape:version="0.92.2 5c3e80d, 2017-08-06">
  <metadata
     id="metadata9">
    <rdf:RDF>
      <cc:Work
         rdf:about="">
        <dc:format>image/svg+xml</dc:format>
        <dc:type
           rdf:resource="http://purl.org/dc/dcmitype/StillImage" />
      </cc:Work>
    </rdf:RDF>
  </metadata>
  <defs
     id="defs7" />
  <sodipodi:namedview
     pagecolor="#ffffff"
     bordercolor="#666666"
     borderopacity="1"
     objecttolerance="10"
     gridtolerance="10"
     guidetolerance="10"
     inkscape:pageopacity="0"
     inkscape:pageshadow="2"
     inkscape:window-width="1121"
     inkscape:window-height="522"
     id="namedview5"
     showgrid="false"
     inkscape:zoom="0.59"
     inkscape:cx="198.52494"
     inkscape:cy="159.63703"
     inkscape:window-x="0"
     inkscape:window-y="0"
     inkscape:window-maximized="0"
     inkscape:current-layer="svg" />
  <g
     id="svgg"
     clip-path="none"
     transform="translate(-1.4750629,-1.9361415)">
    <path
       id="path0"
       d="m 186.431,2.084 c -0.818,0.078 -3.411,0.32 -5.762,0.538 C 88.445,11.16 13.736,84.468 2.818,177.138 -9.261,279.667 61.45,376.267 162.268,394.965 c 2.862,0.531 5.539,1.037 5.948,1.125 0.741,0.16 0.743,-0.01 0.648,-69.155 l -0.095,-69.314 H 143.678 118.587 V 228.81 200 h 25.093 25.093 l 0.001,-23.141 c 0.002,-37.976 1.759,-48.91 10.287,-63.989 17.076,-30.197 50.508,-39.537 107.091,-29.917 l 2.324,0.395 v 24.311 24.311 l -13.662,0.003 c -17.5,0.004 -21.948,0.493 -27.591,3.032 -8.522,3.834 -13.151,9.754 -15.504,19.828 -0.514,2.201 -0.632,5.882 -0.764,23.884 L 230.799,200 h 27.538 c 25.985,0 27.536,0.037 27.517,0.651 -0.01,0.357 -1.979,13.28 -4.375,28.717 l -4.356,28.067 -23.134,0.096 -23.134,0.095 v 69.294 c 0,65.797 0.033,69.286 0.651,69.158 0.357,-0.075 2.992,-0.57 5.855,-1.102 76.938,-14.282 139.233,-74.829 156.296,-151.911 4.198,-18.961 5.76,-46.72 3.627,-64.44 C 385.97,84.626 315.589,14.335 221.19,2.757 216.454,2.176 190.699,1.678 186.431,2.084"
       inkscape:connector-curvature="0"
       style="fill:#000000;fill-rule:evenodd;stroke:none" />
  </g>
</svg>
