<?xml version="1.0" encoding="UTF-8" standalone="no"?>
<svg
   xmlns:dc="http://purl.org/dc/elements/1.1/"
   xmlns:cc="http://creativecommons.org/ns#"
   xmlns:rdf="http://www.w3.org/1999/02/22-rdf-syntax-ns#"
   xmlns:svg="http://www.w3.org/2000/svg"
   xmlns="http://www.w3.org/2000/svg"
   xmlns:sodipodi="http://sodipodi.sourceforge.net/DTD/sodipodi-0.dtd"
   xmlns:inkscape="http://www.inkscape.org/namespaces/inkscape"
   viewBox="0 0 29.901106 29.215542"
   enable-background="new 0 0 50 50"
   version="1.1"
   id="svg4"
   sodipodi:docname="github.svg"
   width="29.901106"
   height="29.215542"
   inkscape:version="0.92.2 5c3e80d, 2017-08-06">
  <metadata
     id="metadata10">
    <rdf:RDF>
      <cc:Work
         rdf:about="">
        <dc:format>image/svg+xml</dc:format>
        <dc:type
           rdf:resource="http://purl.org/dc/dcmitype/StillImage" />
      </cc:Work>
    </rdf:RDF>
  </metadata>
  <defs
     id="defs8" />
  <sodipodi:namedview
     pagecolor="#ffffff"
     bordercolor="#666666"
     borderopacity="1"
     objecttolerance="10"
     gridtolerance="10"
     guidetolerance="10"
     inkscape:pageopacity="0"
     inkscape:pageshadow="2"
     inkscape:window-width="724"
     inkscape:window-height="480"
     id="namedview6"
     showgrid="false"
     inkscape:zoom="4.72"
     inkscape:cx="15"
     inkscape:cy="14.215542"
     inkscape:window-x="0"
     inkscape:window-y="0"
     inkscape:window-maximized="0"
     inkscape:current-layer="svg4" />
  <g
     id="g13"
     clip-path="none"
     transform="translate(-10,-10)">
    <path
       id="path2"
       d="m 25,10 c -8.3,0 -15,6.7 -15,15 0,6.6 4.3,12.2 10.3,14.2 0.8,0.1 1,-0.3 1,-0.7 v -2.6 c -4.2,0.9 -5.1,-2 -5.1,-2 -0.7,-1.7 -1.7,-2.2 -1.7,-2.2 -1.4,-0.9 0.1,-0.9 0.1,-0.9 1.5,0.1 2.3,1.5 2.3,1.5 1.3,2.3 3.5,1.6 4.4,1.2 0.1,-1 0.5,-1.6 1,-2 -3.3,-0.4 -6.8,-1.7 -6.8,-7.4 0,-1.6 0.6,-3 1.5,-4 -0.2,-0.4 -0.7,-1.9 0.1,-4 0,0 1.3,-0.4 4.1,1.5 1.2,-0.3 2.5,-0.5 3.8,-0.5 1.3,0 2.6,0.2 3.8,0.5 2.9,-1.9 4.1,-1.5 4.1,-1.5 0.8,2.1 0.3,3.6 0.1,4 1,1 1.5,2.4 1.5,4 0,5.8 -3.5,7 -6.8,7.4 0.5,0.5 1,1.4 1,2.8 v 4.1 c 0,0.4 0.3,0.9 1,0.7 6,-2 10.2,-7.6 10.2,-14.2 C 40,16.7 33.3,10 25,10 Z"
       inkscape:connector-curvature="0"
       style="clip-rule:evenodd;fill:#181616;fill-rule:evenodd" />
  </g>
</svg>
