<?xml version="1.0" encoding="UTF-8" standalone="no"?>
<svg
   xmlns:dc="http://purl.org/dc/elements/1.1/"
   xmlns:cc="http://creativecommons.org/ns#"
   xmlns:rdf="http://www.w3.org/1999/02/22-rdf-syntax-ns#"
   xmlns:svg="http://www.w3.org/2000/svg"
   xmlns="http://www.w3.org/2000/svg"
   xmlns:sodipodi="http://sodipodi.sourceforge.net/DTD/sodipodi-0.dtd"
   xmlns:inkscape="http://www.inkscape.org/namespaces/inkscape"
   id="svg"
   width="396.91382"
   height="398.07849"
   viewBox="0 0 396.91382 398.07849"
   version="1.1"
   sodipodi:docname="google-scholar.svg"
   inkscape:version="0.92.2 5c3e80d, 2017-08-06">
  <metadata
     id="metadata9">
    <rdf:RDF>
      <cc:Work
         rdf:about="">
        <dc:format>image/svg+xml</dc:format>
        <dc:type
           rdf:resource="http://purl.org/dc/dcmitype/StillImage" />
      </cc:Work>
    </rdf:RDF>
  </metadata>
  <defs
     id="defs7" />
  <sodipodi:namedview
     pagecolor="#ffffff"
     bordercolor="#666666"
     borderopacity="1"
     objecttolerance="10"
     gridtolerance="10"
     guidetolerance="10"
     inkscape:pageopacity="0"
     inkscape:pageshadow="2"
     inkscape:window-width="724"
     inkscape:window-height="480"
     id="namedview5"
     showgrid="false"
     inkscape:zoom="0.59"
     inkscape:cx="198.41287"
     inkscape:cy="199.10346"
     inkscape:window-x="0"
     inkscape:window-y="0"
     inkscape:window-maximized="0"
     inkscape:current-layer="svg" />
  <g
     id="svgg"
     transform="translate(-1.5871308,-1.024976)">
    <path
       id="path0"
       d="M 174,2.851 C 3.24,26.043 -59.397,241.642 72.4,352.563 200.913,460.72 398.998,368.182 398.5,200.221 398.142,79.415 292.715,-13.272 174,2.851 m 141.2,67.496 c 0,0.411 -2.15,2.436 -4.777,4.5 -8.656,6.8 -9.651,11.547 -5.223,24.919 l 2.8,8.457 0.008,16.488 c 0.004,9.069 0.395,21.709 0.868,28.089 2.805,37.856 0.925,48.8 -8.386,48.8 -10.271,0 -11.702,-6.191 -10.171,-44 0.489,-12.1 0.888,-28.021 0.886,-35.379 -0.005,-12.843 0.087,-13.613 2.287,-19.2 3.498,-8.884 4.124,-15.849 1.421,-15.807 -1.978,0.031 -27.88,19.578 -35.7,26.941 l -4.413,4.155 1.929,7.045 c 1.061,3.875 2.57,9.385 3.354,12.245 4.751,17.337 -0.978,31.424 -18.573,45.673 -21.9,17.735 -20.575,28.157 6.09,47.919 21.558,15.977 28.671,33.391 23.17,56.726 -8.42,35.722 -67.127,53.84 -113.97,35.174 -62.082,-24.739 -28.53,-88.594 46.6,-88.685 6.057,-0.008 6.278,-0.314 3.391,-4.677 -6.191,-9.355 -7.375,-20.185 -3.26,-29.809 0.477,-1.115 -0.617,-1.34 -8.492,-1.752 -31.571,-1.652 -50.529,-18.753 -53.909,-48.627 l -0.534,-4.722 -27.646,-0.21 -27.645,-0.21 26.748,-23.18 c 14.711,-12.748 34.053,-29.578 42.983,-37.4 L 171.271,69.6 h 71.965 c 44.033,0 71.964,0.29 71.964,0.747 m -129.725,32.322 c -28.047,10.457 -27.45,55.74 1.065,80.854 36.126,31.817 69.844,-20.574 40.184,-62.437 -10.812,-15.26 -28.516,-23.164 -41.249,-18.417 M 187.2,242.367 C 162.721,247.605 150,260.474 150,280 c 0,25.434 26.153,43.167 59.573,40.394 33.195,-2.754 51.035,-22.359 44.402,-48.794 -5.411,-21.567 -37.317,-35.535 -66.775,-29.233"
       inkscape:connector-curvature="0"
       style="fill:#000000;fill-rule:evenodd;stroke:none" />
  </g>
</svg>
