<?xml version="1.0" encoding="UTF-8" standalone="no"?>
<svg
   xmlns:dc="http://purl.org/dc/elements/1.1/"
   xmlns:cc="http://creativecommons.org/ns#"
   xmlns:rdf="http://www.w3.org/1999/02/22-rdf-syntax-ns#"
   xmlns:svg="http://www.w3.org/2000/svg"
   xmlns="http://www.w3.org/2000/svg"
   xmlns:sodipodi="http://sodipodi.sourceforge.net/DTD/sodipodi-0.dtd"
   xmlns:inkscape="http://www.inkscape.org/namespaces/inkscape"
   id="svg"
   width="398.57669"
   height="397.57144"
   viewBox="0 0 398.57669 397.57143"
   version="1.1"
   sodipodi:docname="image2vector.svg"
   inkscape:version="0.92.2 5c3e80d, 2017-08-06">
  <metadata
     id="metadata9">
    <rdf:RDF>
      <cc:Work
         rdf:about="">
        <dc:format>image/svg+xml</dc:format>
        <dc:type
           rdf:resource="http://purl.org/dc/dcmitype/StillImage" />
      </cc:Work>
    </rdf:RDF>
  </metadata>
  <defs
     id="defs7" />
  <sodipodi:namedview
     pagecolor="#ffffff"
     bordercolor="#666666"
     borderopacity="1"
     objecttolerance="10"
     gridtolerance="10"
     guidetolerance="10"
     inkscape:pageopacity="0"
     inkscape:pageshadow="2"
     inkscape:window-width="1138"
     inkscape:window-height="585"
     id="namedview5"
     showgrid="false"
     inkscape:zoom="0.5878148"
     inkscape:cx="200.01353"
     inkscape:cy="197.0265"
     inkscape:window-x="0"
     inkscape:window-y="0"
     inkscape:window-maximized="0"
     inkscape:current-layer="svg" />
  <g
     id="svgg"
     transform="translate(0.01353499,-0.1985661)">
    <path
       id="path0"
       d="M 21.031,1.075 C 10.899,4.252 2.707,13.436 0.736,23.83 c -1.03,5.432 -0.984,328.25 0.049,342.713 1.141,15.984 5.155,22.939 16.516,28.623 l 5.204,2.604 h 177.123 177.124 l 5.203,-2.604 c 5.906,-2.954 11.027,-7.954 13.793,-13.469 2.794,-5.568 2.875,-11.12 2.799,-192.478 L 398.478,23.42 396.507,18.369 C 394.229,12.533 387.447,5.468 381.016,2.23 L 377.323,0.372 200.743,0.232 C 56.181,0.118 23.595,0.271 21.031,1.075 m 82.427,57.832 c 27.403,13.544 24.929,52.516 -3.957,62.341 -23.2,7.89 -47.419,-12.475 -43.674,-36.726 3.44,-22.276 27.838,-35.397 47.631,-25.615 m 186.176,88.208 c 21.3,4.456 35.446,16.508 42.697,36.377 6.643,18.203 7.622,33.101 6.934,105.541 l -0.476,50 h -28.874 -28.874 l -0.02,-45.91 c -0.03,-66.091 -0.387,-72.176 -4.792,-81.487 -5.26,-11.119 -15.498,-16.215 -30.132,-14.998 -24.481,2.036 -32.829,18.627 -31.757,63.112 0.011,0.465 -0.032,18.493 -0.096,40.064 l -0.118,39.219 H 185.13 156.134 V 244.61 150.186 h 27.881 27.881 l 0.011,11.71 c 0.014,14.476 0.313,15.104 4.465,9.381 15.939,-21.967 42.259,-30.648 73.262,-24.162 M 118.216,244.61 v 94.423 H 89.219 60.223 V 244.61 150.186 h 28.996 28.997 v 94.424"
       inkscape:connector-curvature="0"
       style="fill:#000000;fill-rule:evenodd;stroke:none" />
  </g>
</svg>
