<?xml version="1.0" encoding="UTF-8" standalone="no"?>
<svg
   xmlns:dc="http://purl.org/dc/elements/1.1/"
   xmlns:cc="http://creativecommons.org/ns#"
   xmlns:rdf="http://www.w3.org/1999/02/22-rdf-syntax-ns#"
   xmlns:svg="http://www.w3.org/2000/svg"
   xmlns="http://www.w3.org/2000/svg"
   xmlns:sodipodi="http://sodipodi.sourceforge.net/DTD/sodipodi-0.dtd"
   xmlns:inkscape="http://www.inkscape.org/namespaces/inkscape"
   id="svg"
   version="1.1"
   width="341.50427"
   height="343.66943"
   viewBox="0 0 341.50427 343.66943"
   sodipodi:docname="researchgate.svg"
   inkscape:version="0.92.2 5c3e80d, 2017-08-06">
  <metadata
     id="metadata9">
    <rdf:RDF>
      <cc:Work
         rdf:about="">
        <dc:format>image/svg+xml</dc:format>
        <dc:type
           rdf:resource="http://purl.org/dc/dcmitype/StillImage" />
      </cc:Work>
    </rdf:RDF>
  </metadata>
  <defs
     id="defs7" />
  <sodipodi:namedview
     pagecolor="#ffffff"
     bordercolor="#666666"
     borderopacity="1"
     objecttolerance="10"
     gridtolerance="10"
     guidetolerance="10"
     inkscape:pageopacity="0"
     inkscape:pageshadow="2"
     inkscape:window-width="724"
     inkscape:window-height="480"
     id="namedview5"
     showgrid="false"
     inkscape:zoom="0.59"
     inkscape:cx="171.1772"
     inkscape:cy="172.51832"
     inkscape:window-x="0"
     inkscape:window-y="0"
     inkscape:window-maximized="0"
     inkscape:current-layer="svg" />
  <g
     id="svgg"
     transform="translate(-28.822802,-28.848874)">
    <path
       id="path0"
       d="m 56.25,29.975 c -12.701,2.77 -23.422,13.754 -26.194,26.837 -1.385,6.536 -1.735,279.673 -0.367,287.027 2.457,13.215 14.312,25.257 27.561,27.997 2.853,0.59 46.454,0.781 145.11,0.636 l 141.033,-0.206 5.274,-2.597 c 11.367,-5.596 19.182,-16.045 20.845,-27.872 1.116,-7.931 1.072,-277.525 -0.046,-283.646 C 366.997,44.635 356.703,33.586 343.332,30.104 337.236,28.516 63.501,28.393 56.25,29.975 m 242.098,37.259 c 4.756,1.097 11.316,4.432 13.785,7.009 2.31,2.411 2.057,3.607 -1.455,6.892 l -1.966,1.839 -3.628,-2.77 c -10.29,-7.857 -26.166,-7.434 -35.716,0.951 -19.527,17.145 -14.666,65.867 7.585,76.015 4.549,2.075 18.346,2.315 26.172,0.456 l 4.297,-1.021 0.212,-14.63 0.213,-14.631 h -7.049 -7.048 v -3.906 -3.907 h 12.109 12.11 v 20.276 20.276 l -3.61,1.597 c -39.213,17.346 -67.171,-1.53 -67.058,-45.274 0.092,-35.538 21.353,-56.017 51.047,-49.172 m -121.027,61.945 c 30.718,6.721 43.79,22.14 42.818,50.504 -0.773,22.533 -11.365,37.775 -34.201,49.216 -1.934,0.969 -3.622,1.854 -3.751,1.966 -0.42,0.365 7.756,13.811 14.962,24.604 21.446,32.123 45.842,58.677 61.144,66.552 7.895,4.063 7.004,5.791 -2.824,5.474 -26.204,-0.845 -43.159,-15.563 -74.61,-64.762 -15.615,-24.428 -16.882,-25.21 -42.849,-26.442 l -11.599,-0.55 0.342,34.278 c 0.471,47.122 0.717,47.68 22.27,50.459 6.748,0.87 7.227,1.051 7.227,2.727 V 325 H 117.969 79.688 v -1.782 c 0,-1.668 0.482,-1.84 7.617,-2.719 12.776,-1.572 17.981,-4.374 20.994,-11.301 1.664,-3.824 2.698,-135.399 1.222,-155.353 -1.264,-17.084 -3.298,-18.867 -25.341,-22.22 -2.495,-0.38 -2.93,-0.739 -2.93,-2.42 v -1.973 l 45.117,0.335 c 37.963,0.282 46.043,0.538 50.954,1.612 m -44.25,4.207 c -6.536,0.461 -6.088,-3.066 -6.358,50.051 l -0.24,47.261 18.99,-0.449 c 35.745,-0.844 49.811,-9.972 54.976,-35.672 8.301,-41.304 -17.467,-64.709 -67.368,-61.191"
       inkscape:connector-curvature="0"
       style="fill:#000000;fill-rule:evenodd;stroke:none" />
  </g>
</svg>
