<svg id="RGB_Maroon" data-name="RGB Maroon" xmlns="http://www.w3.org/2000/svg" viewBox="0 0 756 152"><defs><style>.cls-1{fill:#800000;}</style></defs><title>logo.cmyk.reversed</title><path class="cls-1" d="M792.34,83.5l0-.09V83.3c-0.1-1.84-.16-4.21-0.16-6.68V76.13l-0.48.11c-0.61.14-3.74,0.14-6.76,0.14h-9.34c-1.91,0-3.61,0-5.87-.15h-0.1l-0.09,0a1.19,1.19,0,0,0-.5,1,1,1,0,0,0,.36,1l1,0.16c2.58,0.31,2.7.59,2.7,6v18.28c0,5.37-.13,5.65-2.7,6l-1.4.17-0.1.09a1.31,1.31,0,0,0-.28,1.1,1,1,0,0,0,.48.79l0.09,0h0.1c2.38-.1,4.09-0.15,6.33-0.15,2.05,0,3.81.05,6.74,0.15h0.1l0.09,0a1.17,1.17,0,0,0,.5-1,1,1,0,0,0-.36-1l-1.9-.21c-2.59-.22-2.74-0.55-2.74-6V95.61c0-1,0-1,1.29-1h3.45a17.49,17.49,0,0,1,3.79.24A2,2,0,0,1,788,96.52l0.54,2.1,0.09,0.08a1.48,1.48,0,0,0,1.9-.08l0.06-.1V98.4c0-.53,0-1.21-0.08-2-0.05-.92-0.12-2-0.12-3s0.06-2.12.12-3.08c0-.79.09-1.5,0.09-2.05V88.23l-0.06-.1a1.18,1.18,0,0,0-1-.4,1.28,1.28,0,0,0-1,.37L788,90.29c-0.29,1.23-.63,1.35-1,1.49a19.15,19.15,0,0,1-4.19.29h-3.45c-1.29,0-1.29,0-1.29-1V80.38c0-1.64,0-1.64,1.13-1.64h3.1a21.43,21.43,0,0,1,4.83.29c2.18,0.57,2.83,2,3.27,4.51l0,0.14,0.11,0.09a1.17,1.17,0,0,0,.77.26,1.19,1.19,0,0,0,1.06-.53h0Zm-34.07,9.87c0-8.57-5.63-17.8-18-17.8-10.53,0-18.46,7.87-18.46,18.31,0,8.75,6.34,17.6,18.46,17.6a17.66,17.66,0,0,0,18-18.11h0ZM752.41,95c0,10.46-6.19,14.18-11.49,14.18-10.47,0-13.27-10.6-13.27-16.87,0-10.58,6.33-14.33,11.75-14.33,9.61,0,13,9.17,13,17h0Zm-41.53,86.54c0,21.93,16.33,41.3,43.37,41.3,23.52,0,42.28-17.91,42.28-42.52,0-21.44-14.13-41.79-42.28-41.79-25.1,0-43.37,18.64-43.37,43h0Zm12.18-3.9c0-26.68,16.45-35.33,29.12-35.33,23.27,0,32.17,21.69,32.17,41.79,0,24-13.89,35-28.51,35-24,0-32.77-23.39-32.77-41.43h0ZM696.15,78.19a1.24,1.24,0,0,0-.15-1.89l-0.11-.07h-0.12a72.57,72.57,0,0,1-9.55,0h-0.1l-0.09,0a1,1,0,0,0-.54.78,1.3,1.3,0,0,0,.33,1.11l0.1,0.1,1,0.11a4.54,4.54,0,0,1,1.78.5,58.64,58.64,0,0,1-3,6l-0.23.43c-1.22,2.36-2.63,4.91-4.42,8-1.34-2.42-2.64-5.08-3.91-7.65-0.5-1-1-2-1.49-3a27.52,27.52,0,0,1-1.53-3.73c0-.1.23-0.31,1.8-0.53l0.79-.12,0.09-.09a1.35,1.35,0,0,0,.29-1.22,0.93,0.93,0,0,0-.6-0.7l-0.08,0h-0.08c-1.24.1-3.06,0.15-5.4,0.15s-4.21,0-5.86-.15H665l-0.1.06a1,1,0,0,0-.48.75,1.38,1.38,0,0,0,.28,1.11l0.09,0.11,1.56,0.28c1.34,0.23,2,.34,3.73,3.65l6,11.68c1.44,2.76,1.58,3.33,1.58,6.12v2.59c0,5.51-.13,5.79-2.69,6.06l-1.71.17-0.1.1a1.33,1.33,0,0,0-.27,1.11,1,1,0,0,0,.48.78l0.09,0h0.1c2.74-.1,4.51-0.15,6.64-0.15s3.88,0.06,6.89.15h0.1l0.09,0a1,1,0,0,0,.48-0.78,1.3,1.3,0,0,0-.28-1.11l-0.1-.1-2.07-.16c-2.35-.18-2.69-0.56-2.69-6.06V99.92c0-3.8.11-4.18,2.33-8l3.2-5.53,0.84-1.45c2-3.49,3.44-6,5.6-6.38l1.53-.27,0.08-.07h0Zm-17.79,62.13a72.76,72.76,0,0,0-15.47-1.83c-18.4,0-30.46,5.72-38.62,14.25a41.82,41.82,0,0,0-11,28.88,38.35,38.35,0,0,0,11.21,27.66c9.38,9.5,22.66,13.52,37.16,13.52a95.31,95.31,0,0,0,21.81-3.17,27.28,27.28,0,0,1,6-1.1,1,1,0,0,0,.13-1.46c-2.19-.85-2.92-3.78-2.92-8.65V201.6c0-6.21.12-9.62,5.24-10.23l2-.24a2.13,2.13,0,0,0-.12-3c-4,.24-8.17.36-12.92,0.36-7.19,0-13.89-.12-17.42-0.36-0.85.36-1,2.56,0,3l5.36,0.61c7.55,0.85,7.92,1.59,7.92,11.82v4.87c0,3.9-.61,6.09-1.22,6.94-1.34,2.07-5.85,3.66-13.41,3.66-24.49,0-36.55-18.4-36.55-41.79,0-18.28,10.36-35.09,34-35.09,12.43,0,21.56,4.14,25,17.3,0.73,0.73,2.93.61,3.29-.37a137.37,137.37,0,0,1-1.83-17.67c-1.46.24-5.24-.61-7.55-1.1h0ZM657.59,75.61l0-.14-0.06-.13a1,1,0,0,0-.93-0.42,1.35,1.35,0,0,0-.48.08L656,75l-0.07.12c-0.65,1.13-.92,1.22-3.62,1.22h-21c-2.27,0-3.29-.12-3.5-1.25l0-.12-0.09-.09a1,1,0,0,0-.7-0.21,1.61,1.61,0,0,0-.76.16l-0.14.09,0,0.16a52.84,52.84,0,0,1-1.91,7.5l-0.05.16,0.07,0.15a1.41,1.41,0,0,0,1.9.49l0.08-.06,0-.09a8.92,8.92,0,0,1,2.19-3.37c1.12-1,3.65-1.17,6-1.17h2.79c1.13,0,1.13,0,1.13,1.23v22.7c0,5.5-.32,5.74-2.79,6l-1.83.15-0.17.06a1.1,1.1,0,0,0-.45,1,1.08,1.08,0,0,0,.48.93l0.09,0h0.1c3.11-.09,5-0.15,7-0.15s3.62,0,6.64.15h0.1l0.09,0a1.2,1.2,0,0,0,.5-1,1,1,0,0,0-.35-1l-1.8-.21c-2.54-.22-2.69-0.55-2.69-6V79.91a3.18,3.18,0,0,1,.08-1.08,3,3,0,0,1,1-.09H648c2.72,0,4.57.39,5.66,1.19,0.48,0.35.89,1.64,1.11,3.44v0.11l0.07,0.09a1.19,1.19,0,0,0,.92.36,1.13,1.13,0,0,0,1-.54l0.05-.1V83.18a30.4,30.4,0,0,1,.75-7.58h0Zm-46.29,27V84.49c0-5.55.15-5.89,2.73-6.11l1.38-.11,0.08-.06a1,1,0,0,0,.35-1,1.2,1.2,0,0,0-.5-1l-0.09,0h-0.1c-2.4.1-4.2,0.15-6.28,0.15s-3.93-.05-6.38-0.15h-0.1l-0.09,0a1.21,1.21,0,0,0-.49,1,1,1,0,0,0,.35,1l0.09,0.06,1.37,0.11c2.59,0.22,2.74.56,2.74,6.11v18.07c0,5.47-.13,5.75-2.75,6.06l-1.4.17-0.1.1a1.31,1.31,0,0,0-.28,1.11,1,1,0,0,0,.48.78l0.09,0h0.1c2.59-.1,4.28-0.15,6.38-0.15s3.7,0.05,6.28.15h0.1l0.09,0a1.2,1.2,0,0,0,.5-1,1,1,0,0,0-.35-1l-1.44-.21c-2.62-.31-2.75-0.6-2.75-6.06h0ZM602.94,217.8c-5.24-.61-6.82-2.44-10.36-12.92l-16.69-49c-1.83-5.36-3.77-11-5.36-16.33a1.72,1.72,0,0,0-1.82-1.1,13.7,13.7,0,0,1-6.34,4.63c0.37,1.95-.37,4.26-2.07,8.65l-12.43,32.9c-5.12,13.65-8.53,21.57-10.72,27.17-1.7,4.39-4.38,5.73-7.31,6l-4,.37c-0.73.61-.49,2.56,0.25,3,3.29-.12,7.67-0.37,11.69-0.37,5.73,0.12,9.51.12,12.67,0.37a2,2,0,0,0,.24-3l-4-.37c-2.93-.24-3.54-1-3.54-2.44s0.86-4.63,2.68-10.11l4.27-12.79c0.85-2.56,1.58-2.93,4.63-2.93h18.4c3.65,0,4.14.37,5,3l5.36,16.57a24.9,24.9,0,0,1,1.58,6.46c0,1.22-1.71,2-4.26,2.2l-3.54.37a2,2,0,0,0,.24,3c3.53-.12,8.16-0.37,14-0.37,5.48,0,9.75.12,14.74,0.37,0.61-.49.85-2.44,0-3l-3.29-.37h0Zm-31.44-33.14h-15c-3.41,0-3.53-.12-2.56-2.92l7.68-21.2a75,75,0,0,1,2.92-7.19h0.24a80.3,80.3,0,0,1,2.8,7.68l6.58,19.86c1.1,3.29.85,3.78-2.68,3.78h0Zm5-101.49c0-2,.73-5.25,5.65-5.25,4.48,0,5.84,2.91,6.53,5.45l0.07,0.14a1,1,0,0,0,.77.31,1.4,1.4,0,0,0,1.12-.49l0.06-.1V83.12a22.48,22.48,0,0,0-.93-6.33l-0.09-.25h-0.27a6.46,6.46,0,0,1-1.68-.29,20.16,20.16,0,0,0-4.82-.67c-6.43,0-10.75,3.66-10.75,9.12,0,4.64,3.54,7.67,5.66,9.06l4.82,3.15c3.51,2.25,4,4.59,4,6.78,0,2.71-1.84,5.44-6,5.44-5.14,0-7.38-4-8.36-7.28l-0.05-.11a0.89,0.89,0,0,0-.77-0.35,1.36,1.36,0,0,0-1.08.5l-0.08.11v0.13c0.1,2.29.75,6.05,1.42,7.28l0.05,0.1,0.09,0.05a16.27,16.27,0,0,0,8.12,1.93c6.7,0,11.21-3.93,11.21-9.78,0-4.06-2.14-7.36-6.53-10.08l-4.06-2.54c-1.54-1-4.13-3-4.13-5.91h0Zm-12.79,27.72a0.84,0.84,0,0,0,.31-0.78,0.75,0.75,0,0,0-.46-0.6l-0.11,0a5.72,5.72,0,0,1-3.28-1.33c-3.5-2.93-6.28-7.21-10.12-13.41a1.41,1.41,0,0,1-.3-0.71c1.69-.7,6.45-3.19,6.45-8.78a7.92,7.92,0,0,0-4.42-7.45c-2.55-1.38-5.81-1.57-8.66-1.57-4.65,0-8.25.13-11.35,0.41l-0.14,0a1,1,0,0,0-.52.87,1.2,1.2,0,0,0,.41,1.06l0.08,0.06,1.72,0.21c1.66,0.2,1.89.56,1.89,5.55v18.23c0,5.37-.13,5.65-2.7,6l-1.42.17-0.1.12a1.4,1.4,0,0,0-.25,1.16,1,1,0,0,0,.47.71l0.09,0h0.1c2.26-.09,4.1-0.15,6.33-0.15s3.86,0.06,6,.15h0.1l0.09,0a1.11,1.11,0,0,0,.49-0.87,1.17,1.17,0,0,0-.31-1l-0.08-.07-1.18-.17c-2.61-.36-2.71-0.58-2.71-6v-6.4c0-.73,0-0.73,2-0.73S544.74,96,545.41,97s1.67,2.54,2.54,3.92,1.76,2.79,2.44,3.75c3.49,5,6.12,6.56,10.83,6.56a8.24,8.24,0,0,0,2.35-.27l0.12-.06h0ZM548.39,92a8.27,8.27,0,0,1-5,1.24,16.37,16.37,0,0,1-3.21-.15,8.11,8.11,0,0,1-.06-1.39V79.82c0-1.14,0-1.23,2.91-1.23,5.71,0,7.73,4,7.73,7.43,0,2.81-.76,4.72-2.38,6h0Zm-26.24,11.45,0-.12-0.05-.11a1.31,1.31,0,0,0-1.2-.71,1.11,1.11,0,0,0-.65.19l-0.12.14c-1.46,2.91-2.77,4.38-3.43,4.75-1.09.55-2.63,0.72-6.32,0.72-4.23,0-5.32-.51-5.86-1-0.72-.76-0.86-2.42-0.86-5V95.1c0-1,0-1,1.29-1h2.95a17.39,17.39,0,0,1,3.81.24A1.78,1.78,0,0,1,513,96l0.45,2,0.08,0.16a1.23,1.23,0,0,0,1,.37,1.12,1.12,0,0,0,1-.47l0.05-.09v-0.1c0-.5,0-1.15-0.08-1.89-0.06-.93-0.12-2-0.12-3s0.06-2.15.12-3.11c0-.78.08-1.47,0.08-2v-0.1l-0.05-.09a1.12,1.12,0,0,0-1-.47,1.23,1.23,0,0,0-.95.37l-0.49,2.25c-0.23,1.16-.52,1.33-1,1.48a18.85,18.85,0,0,1-4.19.29H505c-1.29,0-1.29,0-1.29-1V80.38c0-1.64,0-1.64,1.13-1.64h3.65a24.3,24.3,0,0,1,4.83.29c2.31,0.58,2.78,2,3.48,4.26l0.1,0.3L517,83.72a1,1,0,0,0,.83.33,1.32,1.32,0,0,0,1.07-.46l0.08-.11-0.07-.75a43.59,43.59,0,0,0-.78-6.24L518,76.16l-0.34.08c-0.56.14-3.71,0.14-6.76,0.14h-9.54c-2,0-3.63,0-6-.15h-0.1l-0.09,0a1.19,1.19,0,0,0-.5,1,1,1,0,0,0,.35,1l1,0.16c2.6,0.31,2.75.64,2.75,6v18.28c0,5.5-.32,5.74-2.79,6l-1.81.16-0.1.1a1.31,1.31,0,0,0-.28,1.11,1,1,0,0,0,.48.79l0.09,0h0.1c2.93-.1,4.7-0.15,6.89-0.15h4.57c4.43,0,8.88,0,13.6.15h0.25l0.11-.23a44.85,44.85,0,0,0,2.31-7.15h0ZM487.33,78.17a1.37,1.37,0,0,0,.28-1.09,1,1,0,0,0-.46-0.79l-0.1-.06h-0.12c-1.7.1-3.26,0.15-4.9,0.15-2,0-3.91-.05-5.25-0.15h-0.12l-0.1.06a1.14,1.14,0,0,0-.51.9,1.16,1.16,0,0,0,.35,1l0.09,0.08,1,0.11c1.78,0.2,1.94.58,1.94,0.58a5,5,0,0,1-.43,1.84c-0.87,2.21-3.29,8-4.71,11.36-0.37.86-.85,2-1.37,3.23-1,2.28-2.13,5.06-3.13,7.24-2.4-5.52-4.62-11.06-6.86-16.71a67.4,67.4,0,0,1-2.5-7c0.08-.16.52-0.38,2-0.58l0.88-.12,0.09-.08a1.16,1.16,0,0,0,.35-1,1.14,1.14,0,0,0-.51-0.9l-0.1-.06h-0.11c-2.26.11-4,.15-6.12,0.15s-3.74,0-5.25-.15h-0.12l-0.11.07a1.24,1.24,0,0,0-.15,1.89l0.09,0.08,1,0.11c2,0.23,2.65,1.14,3.79,3.92l8.94,22a58.23,58.23,0,0,1,2.32,6.7l0,0.19,0.18,0.07a2.42,2.42,0,0,0,.91.18,1.41,1.41,0,0,0,.78-0.22l0.12-.08,0-.13c0.87-2.73,3.31-8.71,5.26-13.21l2.74-6.24A122.09,122.09,0,0,1,483.22,80a2.85,2.85,0,0,1,2.33-1.59l1.67-.11,0.11-.1h0Zm-33.15,70.67a40.47,40.47,0,0,0-15.35,32.29c0,15.72,7.55,26.8,17.3,33.51,8.9,6,19.37,8.16,30.34,8.16a71.67,71.67,0,0,0,19.25-2.8,25.11,25.11,0,0,1,4.27-1.22c1.83-2.31,5-10.35,5.85-16.69a2.57,2.57,0,0,0-3.17-.49c-2.8,7.19-9.75,17.42-25.46,17.42-20,0-36.19-14.13-36.19-39.72,0-25.22,15.84-37,34.48-37,17.67,0,23.15,9.5,25,17.79a2.57,2.57,0,0,0,3.29-.24c-1-7.43-1.58-15.11-1.71-17.91a9.21,9.21,0,0,1-3.41-.49,94,94,0,0,0-21.57-2.92c-12.67,0-24,3.41-32.89,10.35h0ZM438.6,102.56V84.49c0-5.49.18-5.89,2.74-6.11l1.37-.11,0.08-.06a1,1,0,0,0,.35-1,1.19,1.19,0,0,0-.5-1l-0.09,0h-0.1c-2.4.1-4.2,0.15-6.28,0.15s-3.93-.05-6.38-0.15h-0.1l-0.09,0a1.2,1.2,0,0,0-.5,1,1,1,0,0,0,.36,1l0.08,0.06,1.37,0.11c2.56,0.22,2.74.62,2.74,6.11v18.07c0,5.47-.13,5.75-2.75,6.06l-1.4.17-0.1.09a1.32,1.32,0,0,0-.28,1.11,1,1,0,0,0,.48.78l0.09,0h0.1c2.58-.1,4.27-0.15,6.38-0.15s3.76,0.05,6.28.15h0.1l0.09,0a1.19,1.19,0,0,0,.5-1,1,1,0,0,0-.36-1l-1.44-.21c-2.62-.31-2.75-0.6-2.75-6.06h0Zm-25.48,99.77V159c0-12.91.24-15,7.43-15.6l3-.24c0.73-.49.49-2.68-0.24-3-6.09.24-10.23,0.37-15.11,0.37-5.12,0-9.26-.12-15.35-0.37-0.73.37-1,2.56-.25,3l3,0.24c7.19,0.61,7.43,2.68,7.43,15.6v43.37c0,12.91-.24,14.62-7.43,15.47l-3,.37c-0.73.73-.49,2.68,0.25,3,6.09-.24,10.23-0.37,15.35-0.37,4.87,0,9,.12,15.11.37,0.73-.37,1-2.56.24-3l-3-.37c-7.19-.85-7.43-2.56-7.43-15.47h0ZM419.4,78.17a1.29,1.29,0,0,0,.32-1,1.12,1.12,0,0,0-.49-0.84l-0.11-.07H419c-1.67.1-3,.15-5.21,0.15-1.79,0-3.46,0-6-.15h-0.08l-0.07,0a1,1,0,0,0-.57.76,1.26,1.26,0,0,0,.35,1.17l0.09,0.08,1,0.11c1.74,0.22,2.63.48,2.87,0.84,0.61,1,1,4.71,1,10.3v10.86c0,0.49,0,1.06,0,1.45-1.76-1.82-3.6-3.88-5.89-6.44l-7.06-7.92c-5-5.63-7.9-9.33-8.55-11l-0.11-.29-0.31,0a16.11,16.11,0,0,1-2.28.15c-0.89,0-3.59,0-5.71-.15h-0.11l-0.1,0a1,1,0,0,0-.51.77,1.33,1.33,0,0,0,.31,1.13l0.1,0.1,1,0.12a5.05,5.05,0,0,1,2.91,1.1,4.29,4.29,0,0,1,1,3.39V98c0,2.45,0,8.2-.63,9.84-0.12.26-.55,0.61-1.92,0.79l-1.51.17-0.1.1a1.23,1.23,0,0,0-.31,1,1.2,1.2,0,0,0,.46.89l0.11,0.08h0.14c1.77-.1,3.13-0.15,5.26-0.15,1.72,0,3.43,0,5.92.15h0.13l0.11-.08a1.14,1.14,0,0,0,.45-0.76,1.41,1.41,0,0,0-.26-1.06l-0.1-.14-1.75-.17c-1.22-.1-2.07-0.39-2.28-0.77-0.55-1-.86-4.72-0.86-10.32V86.47A22,22,0,0,1,390,83.9c0.81,0.9,2.15,2.49,3.36,3.92,0.83,1,1.6,1.89,2.09,2.46l11.78,13.4c3.91,4.45,5.79,6.66,6.47,7.63l0.12,0.17H414a1.3,1.3,0,0,0,1.34-.83l0-.08v-0.09c-0.07-.59-0.15-2.6-0.15-8.84V88.83c0-2.6,0-8,.72-9.6,0.06-.13.67-0.56,2.55-0.85l0.84-.12,0.09-.09h0Zm-45.51-.08a1.39,1.39,0,0,0,.27-1.07,1,1,0,0,0-.47-0.73l-0.1-.07h-0.12c-1.76.1-3.13,0.15-5.31,0.15-1.95,0-3.83,0-5.77-.15h-0.13l-0.11.07a1.12,1.12,0,0,0-.44.79,1.28,1.28,0,0,0,.26,1l0.1,0.12,1.43,0.11a2.85,2.85,0,0,1,2.23.87c0.59,1,.92,4.71.92,10.31v5.84c0,6-1.69,13.11-9.76,13.11-6.77,0-9.92-4.18-9.92-13.16v-11c0-5.4.18-5.79,2.69-6l1.32-.11,0.08-.06a1,1,0,0,0,.35-0.94,1.14,1.14,0,0,0-.5-1l-0.09,0h-0.1c-2.41.1-4.11,0.15-6.23,0.15s-3.88-.05-6.28-0.15h-0.1l-0.09,0a1.13,1.13,0,0,0-.5,1,1,1,0,0,0,.35.94L338,78.22l1.37,0.11c2.51,0.22,2.69.61,2.69,6v12c0,6.14,1.26,9.93,4.09,12.28,2.24,1.91,5.52,2.88,9.75,2.88,4,0,7.83-1.47,10-3.83,2.46-2.64,3.66-6.69,3.66-12.4V89.52c0-2.57,0-8.6.68-10.19a2.7,2.7,0,0,1,2.21-1l1.38-.11,0.11-.13h0Zm-58.36,65c0.73-.49.49-2.68-0.24-3-5.24.24-9.38,0.37-14.13,0.37-5.24,0-9.38-.24-15.35-0.37-0.73.37-1,2.56-.24,3l3.17,0.24c6.34,0.49,7.19,2.56,7.19,15.35v43.86c0,12.79-.25,14-7.07,15.23l-2.07.37c-0.73.73-.49,2.68,0.24,3,4.75-.12,8.9-0.37,14.13-0.37,4.75,0,8.89.12,15.47,0.37,0.73-.37,1-2.56.24-3l-3.53-.37c-6.82-.73-7.43-2.44-7.43-15.23V185.39c0-3.65.24-3.9,6.09-3.9h34.85c5.85,0,6.09.24,6.09,3.9v17.18c0,12.79,0,14-7.43,15.23l-2.31.37c-0.73.73-.49,2.68,0.24,3,5.36-.24,9.75-0.37,14.74-0.37,4.75,0,8.89.12,14.74,0.37,0.73-.37,1-2.56.24-3l-2.93-.37c-7.07-.85-7.31-2.44-7.31-15.23V158.71c0-12.79.24-14.62,7.31-15.35l2.56-.24c0.73-.49.49-2.68-0.24-3-5.48.24-9.62,0.37-14.38,0.37-5,0-9.14-.12-14.74-0.37-0.73.37-1,2.56-.24,3l2.31,0.24c7.19,0.73,7.43,2.56,7.43,15.35v14c0,3.78-.24,3.9-6.09,3.9H312c-5.85,0-6.09-.12-6.09-3.9v-14c0-12.79.24-14.62,7.31-15.35l2.32-.24h0Zm-4.91-39.66,0-.12-0.05-.11a1.31,1.31,0,0,0-1.2-.71,1.11,1.11,0,0,0-.66.19l-0.12.14c-1.46,2.91-2.77,4.38-3.43,4.75-1.09.55-2.63,0.72-6.33,0.72-4.23,0-5.32-.51-5.86-1-0.72-.77-0.86-2.42-0.86-5V95.1c0-1,0-1,1.29-1h2.95a17.41,17.41,0,0,1,3.81.24A1.77,1.77,0,0,1,301.48,96l0.46,2L302,98.14a1.23,1.23,0,0,0,1,.37,1.12,1.12,0,0,0,1-.47l0.05-.09v-0.1c0-.5,0-1.15-0.08-1.89-0.06-.93-0.12-2-0.12-3s0.06-2.15.12-3.11c0-.78.09-1.47,0.09-2v-0.1L304,87.65a1.12,1.12,0,0,0-1-.47,1.23,1.23,0,0,0-.95.37l-0.49,2.25c-0.23,1.16-.52,1.33-1,1.48a18.84,18.84,0,0,1-4.19.29h-2.95c-1.29,0-1.29,0-1.29-1V80.38c0-1.64,0-1.64,1.13-1.64h3.66a24.27,24.27,0,0,1,4.83.29c2.32,0.58,2.78,2,3.49,4.26l0.1,0.3,0.07,0.13a1,1,0,0,0,.83.33,1.32,1.32,0,0,0,1.07-.46l0.08-.11-0.07-.75a44.11,44.11,0,0,0-.78-6.24l-0.12-.33-0.34.08c-0.56.14-3.71,0.14-6.76,0.14h-9.54c-2,0-3.63,0-6-.15h-0.1l-0.09,0a1.2,1.2,0,0,0-.5,1,1,1,0,0,0,.35,1l1,0.16c2.6,0.31,2.75.64,2.75,6v18.28c0,5.5-.32,5.74-2.79,6l-1.81.16-0.1.1a1.31,1.31,0,0,0-.28,1.11,1,1,0,0,0,.48.78l0.09,0h0.1c2.93-.1,4.7-0.15,6.89-0.15h4.57c4.43,0,8.87,0,13.6.15h0.25l0.11-.23a44.4,44.4,0,0,0,2.31-7.15h0Zm-42.43-.78V84.39c0-5.41.15-5.75,2.69-6l1.06-.1,0.18-.06a1,1,0,0,0,.36-1,1.21,1.21,0,0,0-.5-1l-0.09,0h-0.1c-2.45.11-4.13,0.15-6,.15-2.2,0-4-.06-6.12-0.15h-0.1l-0.09,0a1.2,1.2,0,0,0-.5,1,1,1,0,0,0,.35,1l1.14,0.16c2.59,0.27,2.75.6,2.75,6v5.84c0,1.24,0,1.24-2.15,1.24H246.57c-2.15,0-2.15,0-2.15-1.24V84.39c0-5.41.15-5.75,2.7-6l1-.1,0.18-.06a1,1,0,0,0,.35-1,1.2,1.2,0,0,0-.5-1l-0.09,0h-0.1c-2.31.11-4,.15-5.87,0.15-1.33,0-2.48,0-3.74-.08l-2.64-.07h-0.1l-0.08,0a1.19,1.19,0,0,0-.5,1,1,1,0,0,0,.35,1l0.08,0.06,1.42,0.11c2.24,0.17,2.63.63,2.63,6v18.28c0,5.29-.1,5.51-2.62,6l-1,.17-0.09.09a1.31,1.31,0,0,0-.28,1.11,1,1,0,0,0,.48.78l0.09,0h0.1l2-.06c1.2,0,2.44-.09,3.85-0.09,1.91,0,3.53,0,6.44.15h0.1l0.09,0a1.17,1.17,0,0,0,.5-1,1,1,0,0,0-.36-1l-1.64-.21c-2.44-.26-2.75-0.51-2.75-6V95.51c0-1.23,0-1.23,2.15-1.23h14.52c2.15,0,2.15,0,2.15,1.23v7.16c0,5.4-.05,5.51-2.77,6l-1.09.17-0.09.09A1.31,1.31,0,0,0,259,110a1,1,0,0,0,.48.78l0.09,0h0.1c2.43-.11,4.2-0.15,6.12-0.15s3.76,0.06,6.13.15H272l0.09,0a1.2,1.2,0,0,0,.5-1,1,1,0,0,0-.35-1l-1.39-.21c-2.58-.31-2.7-0.59-2.7-6h0ZM226.44,75.61l0-.15-0.07-.13a1.06,1.06,0,0,0-.93-0.41A1.33,1.33,0,0,0,225,75l-0.13,0-0.07.12c-0.65,1.13-.92,1.22-3.62,1.22h-21c-2.27,0-3.29-.12-3.51-1.25l0-.12-0.09-.09a1,1,0,0,0-.7-0.21,1.59,1.59,0,0,0-.76.16L195,75l0,0.16a53.33,53.33,0,0,1-1.91,7.5l-0.06.16,0.07,0.15a1.41,1.41,0,0,0,1.9.49l0.08-.06,0-.09a9,9,0,0,1,2.19-3.37c1.12-1,3.65-1.17,6-1.17h2.79c1.13,0,1.13,0,1.13,1.23v22.7c0,5.5-.32,5.74-2.79,6l-1.83.15-0.17.06a1.25,1.25,0,0,0,0,1.95l0.09,0h0.1c3.11-.09,5-0.15,7-0.15s3.62,0,6.64.15h0.1l0.09,0a1.18,1.18,0,0,0,.5-1,1,1,0,0,0-.36-1l-1.81-.21c-2.54-.22-2.69-0.55-2.69-6V79.92a3.17,3.17,0,0,1,.08-1.09,3,3,0,0,1,1-.09h3.6c2.72,0,4.57.39,5.66,1.19,0.48,0.35.9,1.64,1.11,3.44v0.11l0.07,0.09a1.19,1.19,0,0,0,.92.36,1.13,1.13,0,0,0,1-.54l0-.1V83.18a30.6,30.6,0,0,1,.75-7.58h0ZM191.86,181.13c0,15.72,7.55,26.8,17.3,33.51,8.89,6,19.37,8.16,30.34,8.16a71.71,71.71,0,0,0,19.25-2.8,25.08,25.08,0,0,1,4.26-1.22c1.83-2.31,5-10.35,5.85-16.69a2.56,2.56,0,0,0-3.17-.49C262.9,208.79,256,219,240.23,219c-20,0-36.19-14.13-36.19-39.72,0-25.22,15.84-37,34.48-37,17.67,0,23.15,9.5,25,17.79a2.57,2.57,0,0,0,3.29-.24c-1-7.43-1.58-15.11-1.71-17.91a9.21,9.21,0,0,1-3.41-.49,94,94,0,0,0-21.57-2.92c-12.67,0-24,3.41-32.9,10.35a40.48,40.48,0,0,0-15.35,32.29h0Zm-31.68-20.56V75.7c-68.18-6.57-119.64,0-119.64,0s0,84.86,0,84.88c5.43,57.53,59.31,64.29,59.83,64.19C110,223,155.16,214,160.18,160.57h0Zm-3-.47c-4.77,51.25-47.66,60-56.8,61.64-0.49.09-51.66-6.4-56.82-61.63,0,0,0-81.49,0-81.49s48.87-6.31,113.62,0V160.1h0Zm-17.38,30.16a23.12,23.12,0,0,0,3.66-8.86,10.86,10.86,0,0,1-4.39,3.37c-1.15,3.65-.61,7.42.73,5.48h0Zm1.83-8.22c1.37-1.15,2.15-3.11,3.91-3.7-1.33-1.22-2.63,1.21-3.31.37a11,11,0,0,0,2.13-5.81c0.07-1.3,1.58-2.51,1.93-3.23-1.45.21-5.33,2.5-6.11,3.81-2.61,3.45-2.47,6.68-13.37,11.49-0.54,0,2-1.86,2.74-4,0.34-1,1.78-5.68.79-7.94-2.25,2.29-1.79,3-2.43,4.73-1.63,4.46-2.52,4.88-6.58,7.63-0.54.37-3.66,5.19-7.71,5.42,0.41-.11.18-1.12,1.54-2,4.53-3,2.81-9.38,8.72-10.44-2.95-1-5,1.82-5.51,1.53,2.38-3.3.29-6.1,0.63-8.79a3.3,3.3,0,0,0-1.67,2.19c-0.45,4.8-2.69,5.64-2.92,7.71,0.48,3.43-2.28,6.09-4.29,8.5-0.39-2,.13-3.77,2.64-5.42,1.39-.91-0.13-3.64-0.13-3.64-0.56,3-2.25,3.9-3.29,4.05s3.21-4.18,2.73-8.13c-0.21-1.76-.72-1-1-2.95-3.55,3.95-1,6.39-4.6,10.95-1.72,2.16-2.37,6-2.6,6,0-5.65.22-4,2.73-8.59,2.07-3.77-.11-7.29-0.4-9.57-4.52,3.11-4.15,9.12-4.26,7.82s-0.68-3.53-.07-5.57c1-3.38-1.13-8.54-1.13-8.54-6.33,9.93-1,21.53-1.42,21.38-2.75-4.3-4.75-4.47-5.35-7.77-0.33-1.79-3.59-11.62-9.58-11.8,3,2.6,2.29,3,2.49,7.22-1.92,10.67,13,11.77,12,17.3-2-3.28-5.17-4.66-9.87-7.22-2.08-1.65-4.43-2.38-4.56-5a9,9,0,0,0,0-3.93c-0.23-1.74-1.95-.69-3.21-4.33-2.69,2.44-1.71,5.2-1.49,6.77a6.65,6.65,0,0,1,0,3.07c-1-.66-1.62-2-2.69-3.38-1.93-2.47-1.91-5.48-2.88-7.56-0.45-1-1.09-2.28-1.47-2.3l-0.07,0c-0.47,3.88-.24,7.27,1.52,10.17a3.68,3.68,0,0,1-.88,1,7.42,7.42,0,0,1-5-4.57,3.2,3.2,0,0,0-.7,4c-4.67-2.39.05-11.67-6.6-11.4,1.64,1.79.6,4.08,0.46,6.22,0,3.48,4.38,6.18,4.38,6.18-4.93-1.67-5.94.64-5.88,0.64a69.37,69.37,0,0,0,18.72,4.34c1.47,0.15,3.58,1.88,3.23,1.88-1.47-.12-4.38-2-8.59,1.72,2.47,0.07,4.17,4.09,8.19,1.78,10.37-2.94,14.22,2.21,15.9,3.54-0.36.65-8-4.78-14-1.18C80.22,194.75,75.07,193,71,190c1.63,4.17,8.58,8.86,10.87,8.86,2.82,0,6.41-3.67,10.5-3.47,6.54,0.32,7.45,6.17,6.73,5.71,0,0-5.15-8.51-11.76.58,3.09-1.42,7.23-1.05,10.85.66,0.49,0.23-.89,1.75-1.86,2.86C95.71,205.91,93,210,90,206c-0.45-.6-1.87-4.34-11.2-3.54,3.52,1.59,7.42,5.76,9.34,7.66,4.89,4.84,12.28-5.87,12.56-4.68,0,2.41,1.24,3.58,1.89,4.88,1.64,3.28-2.08,2.73-4.1,1.89,0,0,3.86,6,7.09,2.67,3.58-3.71-4.68-6.5-2.06-9.45,1.48-1.66,6.67,3.71,9,3.73,6.34,0.71,6-5.32,9.36-5.14-3.15-3.19-6.5-1.46-7.2-.64-2.11,2.46-4.56.81-6.26-.52a3.54,3.54,0,0,0-3.87-1c-0.66.05,1.33-2.33,3.92-1.83a22.56,22.56,0,0,0,13.12-1.77c2.35-1.32,3.67-3.56,6.29-6.06-0.82.16-5.67,2.86-7.23,3.64-4.68,2.35-7.6-.7-8.13-0.69-0.9,0-.67-0.68.74-1.13,4.8-1.07,8.11-5.3,12.68-7,5-2.26,11.45-.73,15.72-4.95h0Zm-9.52-6.33a19.81,19.81,0,0,1-.46,2.91c0,0.11,1.12.57,1.64,1a16,16,0,0,0,2.17-2c-0.17-.11-3.25-2.79-3.25-2.67a5.3,5.3,0,0,1-.09.74h0Zm0.47,4.58a3.8,3.8,0,0,0-1.25-.72,18.73,18.73,0,0,1-.79,1.79c-0.31.62,0.62,0.18,2-1.07h0Zm13.93-12.1c-0.29-11-7-23.21-5.2-20.94,4.6,5.68,6.07,18,9.22,28.59,0,0,2,1,1.6-12.42a22.72,22.72,0,0,0-2.55-8.88c-2.67-5-8.08-13.41-7.92-13.48,1.3-1.06,4.48,6.2,7.24,9.06,1.79,1.85,6.76,3.66,7.11,3.42-4-7.73-13.65-15-12.64-15.92,7.11,6.67,9.36,7,9.65,6.63l-6.41-6.22c-1.81-2.43-4.2-4.29-3.87-4.22,2.86,0.63-1.49-2.37-4.85-3.29-0.61-.16-1.57-0.22-1.61-0.52-0.06-.52.79-0.3,1.5-0.52a1.2,1.2,0,0,0,.94-1.15,6,6,0,0,1-3.69-.51c-2.27-1.05-6.32-2.27-8.19-1.54a6.71,6.71,0,0,0-2.48,1.28c-0.52-.22-1.95-1.13-4,1.31a5.44,5.44,0,0,0-1.41,2.28c-0.09,1.63,0,.08.44,1.63,0.16,0.65-.57,1.84-3.55,2.84a1.27,1.27,0,0,0-.86,1.53,2.86,2.86,0,0,1,2.87-.27c2.72,1.28,3.26-.74,5-2.18,0,0-.47,1.81,0,1.91,2.12,0.44,1.41,2,1.14,2.26-2.67,2.38-1.55,3.28-2.5,4.75s-2.28,1.91-4.34,1.85c-2.85-.09,3.73-4.39-2.56-6.18,1,1.65,1.39,3-.81,4.25-1.39.8-.68,4.9-4.24,3,0,0-.29,3-0.7,3.16,4.83,4.23,2.13,6.54,2.37,12.58,1.51,3.85-.15,5.68-0.53,5.89,0.24,2.61.49,4,2.11,6.15,1.18,1.54-.11,3.9,1.1,5.55,1.11-3.92,2.29-2.29,2.61-7.74a6.12,6.12,0,0,1,3.32-2.63c0,3.29,1.2,6.28.94,7.67a12.29,12.29,0,0,1,3.63-.2,2.13,2.13,0,0,1,1.23,1.68,17.29,17.29,0,0,0-2.37,1.4c-2.49,1.81-3.64,5.51-3.64,5.51s5.85-4.67,6.27-5.51a18.88,18.88,0,0,0,1-2.76c0-.12-3-1.9-3.86-3.53-2.62-5.09,4.06,3,4.21,2.31a10.64,10.64,0,0,1,1.62-3.42,10.69,10.69,0,0,1-3.07-3.62c-3.65-6.43,4.23,2.74,4.23,2.74,2.09-1.2,2.1.4,2.37,2.09,0,0.16,3.55,2.75,3.72,2.92a10.28,10.28,0,0,0,2.12-3c0.05-.12-6.36-5.8-7.46-7.68-8.84-15.16,7.15,6.73,7.91,6.13a14.62,14.62,0,0,0,.52-5,21.12,21.12,0,0,1-4.93-5.31c-7.43-12.27,4.88,3.66,4.87,3.54-0.15-2.63-2.3-14-.81-10.6A41.85,41.85,0,0,1,141,171.26c0.83-1.35,4.26-2.71,5.56-3.05h0Zm4.84-73,0.13,1-0.13-1a4.38,4.38,0,0,0-4.61-4.1c-1.43,0-3.17,1.74-7.62-.19v7c1.8,0.53,6.75-2.29,8.72-3.15,1.41-.62,3.41-0.21,3.5.48h0ZM139,105.22v7a16.89,16.89,0,0,0,8.19-2.81,3.89,3.89,0,0,1,4.15.26h0s-0.58-4.55-4.44-4c-7.1,1-7.92-.42-7.92-0.42h0Zm-26.52,11c3.69,0,18.22,4,25.22,3.51V83.24s-10.31,1.46-19.23-1.83c-7.28-2.69-17.29,2-17.29,2,0,1.24,0,35.83,0,35.83s3.68-3,11.3-3h0Zm-7.87-12c0.35,0,1.39.05,1.77,0.05,0,0.78,0,6.2,0,6.76a0.65,0.65,0,0,0,1,.51c0.24-.1.46,0.07,0.15,0.33a10.86,10.86,0,0,0-1.48,1.7c-0.61-.42-1.28-0.95-1.23-1.45,0.08-.87-0.19-7.17-0.22-7.9h0Zm1.92-7.91a8,8,0,0,1,4.26-.69c0.41,0.11.83,0,.83-0.19s0.38-.2.38,0,0,2.81,0,3.06a0.19,0.19,0,0,1-.38,0,1.36,1.36,0,0,0-.33-1,3.12,3.12,0,0,0-4.89.17c-0.45.58-.61,1.59-0.11,1.76a10.71,10.71,0,0,0,3-.1,17.27,17.27,0,0,0,2.29-.48c0.17-.11.4-0.25,0.4,0s0,1.3,0,1.6-0.24.16-.4,0a13.71,13.71,0,0,0-2.21-.29,15.74,15.74,0,0,0-3.08-.25c-0.51.15-.11,0.94,0.33,1.53,1.29,1.74,3.69,1.79,4.65.37a1.3,1.3,0,0,0,.35-1,0.2,0.2,0,0,1,.39,0c0,0.24,0,2.4,0,2.61s-0.4.27-.4,0c0-.46-0.27-0.43-0.8-0.27a6.51,6.51,0,0,1-4.37-.13c-1.17-.67-2.19-0.89-2.22-3.47,0-1.56,1.43-2.8,2.37-3.34h0ZM114.2,85.2A2,2,0,0,0,113,86.66c-0.12.65-2.26,6.84-2.51,7.25a41.31,41.31,0,0,0-3.33-7.51,1.59,1.59,0,0,0-1.69-.72c-0.52,0-.33-0.5.1-0.46,0.6,0.07,4,.37,4.93.51,0.34,0.07.35,0.38-.1,0.52a1.1,1.1,0,0,0-.77.59,20,20,0,0,0,1.56,3.57c0.29-.69,1.44-3.64,1.21-4.29s-0.35-.75-0.82-0.8-0.48-.34.1-0.43a16.58,16.58,0,0,1,2.66-.17c0.48,0,.54.32-0.11,0.49h0Zm3.63,0.08-0.63.55h-0.52l-0.53-.52,0-1,0.85-.72,0.85,0.83v0.88h0Zm1.47,7.16-1.13,1.47h-1.05a3.23,3.23,0,0,1-1-1.35L116.1,89l-1.31-.75c-0.24.33-.73,0.33-0.54,0.05l1.81-1.59,0.39,0,1.15,1.15,0,3.64a2.38,2.38,0,0,0,1.73.94h0Zm6.37-4.17c-0.27,0-3,.33-3,0.33a20,20,0,0,0,.24,3.72c0.08,0.28.35,0.7,0.66,0.43s0.6,0.18.27,0.46-0.79,1.35-1.07,1.52c-0.43.27-1.05-.62-1.26-1.17a19,19,0,0,1-.54-4.77c0.09,0-1.27-.54-0.66-0.79a6.17,6.17,0,0,0,2.5-2.52c0.15-.42.53-0.24,0.33,0.17a2.42,2.42,0,0,0-.18,1.93,17.5,17.5,0,0,0,2.71.08c0.2,0,.19.6,0,0.6h0Zm-3.14,11.65a2.6,2.6,0,0,0,1.57,2.56,3.71,3.71,0,0,0,2,.1,0.54,0.54,0,0,0,.38-0.3c0.2-.19.43,0,0.27,0.17s-1.76,1.69-2.19,2a1.86,1.86,0,0,1-1.81-.6c-0.94-1.17-1.62-1.6-1.32-3.74,0.21-1.45,2.62-2.71,3.18-3,0.22,0.22,1.32,1.38,1.8,1.76a2,2,0,0,1-1.38.51,2.06,2.06,0,0,1-1.4-.94,2.54,2.54,0,0,0-1.07,1.49h0Zm9.67-5.76-1.46,1.6a1.83,1.83,0,0,1-.81-1.17,5.54,5.54,0,0,0-2.39,1.28,4,4,0,0,1-1.16-2.3,3.86,3.86,0,0,1,1-2.28l0.12,0.07a5.66,5.66,0,0,1-.65-0.43,0.67,0.67,0,0,1,0-.82,4.25,4.25,0,0,1,2.09-1.66,3.08,3.08,0,0,1,2.37,1,31.06,31.06,0,0,0-.14,3.7,7.88,7.88,0,0,0,1,1h0Zm3,7.24a6.32,6.32,0,0,1-1.23-.18,0.3,0.3,0,0,1,.1-0.59,4,4,0,0,1,1.12.19c0.24,0.1.34,0.61,0,.58h0Zm0,1.13a6.68,6.68,0,0,1-1.23-.18c-0.42-.13-0.25-0.58.1-0.58a4.32,4.32,0,0,1,1.1.19c0.24,0.1.34,0.61,0,.57h0Zm-7.61,6.74c0.48-.28,1.63-1.32,2-1.6a9.94,9.94,0,0,1,1.42,1.39,10.6,10.6,0,0,0,1.46-1,10,10,0,0,1,1.47,1.23c0.31-.28.69-0.06,0.33,0.29s-1.09,1-1.38,1.2a13.29,13.29,0,0,1-1.4-1.25,4.14,4.14,0,0,1-.58.34c0,0.46,0,4.25,0,4.71a6.27,6.27,0,0,1-1.56,0c0-.6,0-3.89,0-4.41s-1.08-.88-1.78-0.9h0ZM127.3,102a4.66,4.66,0,0,1,3.34-4.22A3.63,3.63,0,0,1,133,101a6.22,6.22,0,0,1-.95,2.77,14.21,14.21,0,0,0-1.86,1.6c-1.95,0-2.89-2.3-2.85-3.41h0Zm-7.52,6.21c0.58-.65,1.21-1.07,1.57-1.43A4,4,0,0,1,122.5,108c0,0.83-.19,2.58-0.13,3.19s2.4,1,2.51.12a15.58,15.58,0,0,0,0-2.51c0-.4-1-0.59-1.45-0.52,0.64-.67,1.18-1.16,1.58-1.53a6.72,6.72,0,0,1,1.47,1.56,30.18,30.18,0,0,0,0,3.51,1,1,0,0,0,.53.89c-0.44.41-.76,0.59-1.06,0.91a1.74,1.74,0,0,1-1.15-1.4,13.41,13.41,0,0,1-2.72,1.19c-0.58-.6-1-0.76-1.05-1.48a15.59,15.59,0,0,0-.07-3.15,1.18,1.18,0,0,0-1.12-.6h0Zm-1.35-5.33a6.44,6.44,0,0,1-1.8-1.72c-0.77,1-1,1.83-2.37,2.2a4.9,4.9,0,0,0,1.51-3.64,2.28,2.28,0,0,0-1.39-2.18c-0.54.26-1,.61-1.28,0.73s-0.38-.34-0.17-0.45a15.3,15.3,0,0,0,2.4-1.71,2.08,2.08,0,0,1,1.54,1.18,17.23,17.23,0,0,0,1.6-1.45,4.36,4.36,0,0,0,2.12,1.49c-0.88,1.5-2.83.6-3.11,0.23a1.3,1.3,0,0,0-.07,1.5,5.12,5.12,0,0,0,2.84,2,20.54,20.54,0,0,1-1.81,1.83h0Zm-2.25,4.55c0.09,0-1.25-.51-0.68-0.79a5.38,5.38,0,0,0,2.17-2c0.15-.41.54-0.22,0.34,0.19a3.51,3.51,0,0,0-.22,1.74,2.48,2.48,0,0,0,1.16.21c0.2,0,.18.6,0,0.6s-1.2,0-1.2,0a20.79,20.79,0,0,0,0,3.68,1,1,0,0,0,1.18.19c0.29-.27.59,0,0.24,0.27a5.78,5.78,0,0,1-1.26,1.29,1.47,1.47,0,0,1-1.55-.61c-0.52-.79-0.22-3.28-0.2-4.81h0Zm-3.08,5.39a2,2,0,0,1-1.07-1.06,9.59,9.59,0,0,0-2.51,1.76,2.82,2.82,0,0,1-.83-1.93,3.74,3.74,0,0,1,1.15-2.17l-0.14-.11a2.05,2.05,0,0,1-.18-1.54c0.28-.4,1.41-2,2.3-2,0.61-.06,1.09.7,1.61,1.26a29.05,29.05,0,0,0-.09,3.19c0.57,0.61.8,0.75,1.14,0.52s0.48,0,.24.23-1.32,1.56-1.61,1.88h0ZM112,109.48a11.25,11.25,0,0,0-.05-1.42,1.66,1.66,0,0,0-1.09-1.05,0.92,0.92,0,0,0-.79.59,2.2,2.2,0,0,0,0,1.4,2,2,0,0,0,1.91.48h0Zm-1.52.36c-0.68,1.29-.12,1.56.26,1.87A9.21,9.21,0,0,0,112,111c0-.23,0-0.67,0-1.16a2.14,2.14,0,0,1-1.52,0h0Zm18.27-7.69a5.81,5.81,0,0,0,2.06,2.05,4.3,4.3,0,0,0,.75-3,3.22,3.22,0,0,0-2.06-2,2.28,2.28,0,0,0-.75,3h0Zm0-7.56a3,3,0,0,1,1.18-.35,4.84,4.84,0,0,1,0-.61c0-.18,0-0.67,0-1.22a12.41,12.41,0,0,1-2.14-.93L128,91.65a2.41,2.41,0,0,0,.66,2.93h0Zm-1.48-3.86a12.1,12.1,0,0,0,2.65,1.35,11,11,0,0,0-.05-1.5c0-.41-1.39-1.18-1.62-1.18a1.74,1.74,0,0,0-1,.89c-0.17.27-.15,0.33,0,0.44h0ZM99.9,123.83a3.33,3.33,0,0,0-2.89,2c-0.7.69-.67-1.16-2.09-0.35-0.61.82,1,2.64,0.6,2.75-1.55.47-1.36-2.33-2.24-2.4-1.27.45-4.48,3.38-1.33,5.7-0.1-1.57,2.87-3.28,3.85.19a3.84,3.84,0,0,1,4.35,2.6c4.39,0.78,3.12,3.69,3,3.69-0.42-.62-2.3-3.53-5.39-1.53-0.72.46-2,.92-2.57,0.31a1.94,1.94,0,0,0,2.13,1.62c2.75-.75,3.44,1.8,1.34,2.5a1.46,1.46,0,0,0,2.11.17,6,6,0,0,0,1.75-1.79c0.75,3.58-3.78,3.92-5.23,4.14,0.22,0.76.71,0.93,1.62,1.2-4.78.16-5.72,4.65-5.44,7.23,1.08,0.08,2.74-2.26,2.59-.92-3.39,3.59-4.53,8.4-2.75,11.46a3.12,3.12,0,0,0,1.41-2c0.13-.09,1.87.68-0.91,4-0.19.87-1.17,3.48,1,4.11,0.82-1,.7-1.8.88-2.79,0.62-.25,1,1.77.79,2.38-2.79,1.15-2.44,9.72.79,14.32a15.12,15.12,0,0,1,0-11.07c1-2.65,3.19-8.6,3.25-8.53,1.25,1.53,2.82,8.09,2.82,10.81,1.75-1.52,2.09-3.18,3.52-4.3,0.68,2.38,1,4,1.49,6.06,0.69-2.05,2.53-4.37-.09-11,0.54-.49,1.53,2.31,1.85,2.18s0.6-1.49-.3-4.1c-1.84-1.72-2.25-4.24-2-4.43s1.07,2.62,2,2.76c0.2-2.15.72-4.35,0.56-6a9,9,0,0,0-2.79-4.49,5.65,5.65,0,0,1-1.53-3.73c1.14,1,.89,1.82,1.86,2.24a8,8,0,0,0-1-5.72c-0.67-1.11-.36-1,0.45-0.29,1.05,1.25.55,1.15,1.45,1.67,2-4.69.18-5.6,0.32-5.93s1.54,2.19,2.73,1.23c-2-1-1.9-2.6-2.12-4.3-0.17-1.34-1-1.84-.7-2.17,2,1.47,2.49-.16,2.55-0.48-0.37.21-2.11,0.44-2.32-2.26-0.08-1.06-1.72-1.53-1.71-1.53,1-.19,4.22-0.37,3.45-3.56a2.78,2.78,0,0,1-3.34,1.47,1.49,1.49,0,0,0,1-1.73c-3.09,1.73-5.6-1.8-8.82-1.34h0Zm5.73,4.21c-2,.4-3.57,2.63-5.9,1.68-0.3-.2-0.93-0.37-0.85-0.83a4.83,4.83,0,0,0,1.52.46,1.57,1.57,0,0,1-.15-2.31c-1.4.88-1.89,0.64-1.89,0.18a3.53,3.53,0,0,1,3.57-.89c1.25,0.47,2.33,1.43,3.7,1.63V128h0Zm-3.3,0a2.38,2.38,0,0,1-.61,1.15l2.22-1.12a12.82,12.82,0,0,0-2.22-1.15,1.63,1.63,0,0,1,.61,1.12h0ZM89.21,116.27a28.25,28.25,0,0,1,10.32,2.94V83.29s-8.19-5.73-21.5-.6c-3.91,1.51-13.44.24-13.44,0.24v36.71c8.35,0.57,19.24-3.74,24.62-3.38h0Zm-4-19.33c1.07,0.34,2.66.09,3.16,1.51S88,101.88,86.72,102c-1,.09-2-0.26-2.57-0.22a0.47,0.47,0,0,0-.52.4c0,0.32-.46.45-0.54,0a23.28,23.28,0,0,1-.21-2.6c0-.5.46-0.55,0.55,0a2.43,2.43,0,0,0,.66,1.37c0.32,0.36,2.37.87,3.12,0.27a1.28,1.28,0,0,0-.17-2c-0.63-.42-3.17-1-3.6-1.73-0.74-1.24.58-2.28,1.16-2.61a4.19,4.19,0,0,1,2.32-.34c0.35,0,.83.12,0.85-0.27s0.32-.35.35,0A5.68,5.68,0,0,1,88.32,96c0,0.54-.19.55-0.42,0.13s-1.71-1.58-3-.77c-1.07.7-.67,1.32,0.32,1.59h0Zm3.06,7.36c-0.46.44-.83,0.85-1.24,1.3a15,15,0,0,1-1.29-1A2.49,2.49,0,0,0,87,103.39a1.65,1.65,0,0,0,1.26.91h0Zm-6.82,2.77a8.73,8.73,0,0,0,1.66-2.6c0.12-.41.36-0.27,0.32,0.17a14,14,0,0,0-.23,2.32,3.14,3.14,0,0,0,1.25.13c0.2,0,.21.58,0,0.58s-1.25.15-1.25,0.15a5.78,5.78,0,0,0,.13,2.37c0.4,0.38.71,0.65,1.26,0.07,0.27-.27.54,0,0.23,0.26a6.79,6.79,0,0,0-1.1,1.54c-0.17.45-1.17,0.1-1.49-.37-0.51-.76-0.29-2.29-0.33-3.78,0.09,0-1-.48-0.48-0.84h0Zm-0.77-4.34c-0.37.32-1.17-.19-1.46-0.68-0.46-.78-0.32-2.61-0.25-4.1a0.93,0.93,0,0,0-.57-0.43C78,97.43,78,97.29,78.57,97a6.79,6.79,0,0,0,2.06-2.49c0.14-.39.37,0,0.15,0.37a3.37,3.37,0,0,0-.19,2.23,7.86,7.86,0,0,0,1.75-.06c0.2,0,.17.6,0,0.58s-2.08.22-2.08,0.22a11.43,11.43,0,0,0,.34,3.18s0.61,0.54.83,0.32,0.55,0,.22.29a11.2,11.2,0,0,1-.91,1.05h0Zm-6.6,4.44a19.32,19.32,0,0,0,1.51-1.38,6.42,6.42,0,0,0,1,1.51c0.48-.41,1.29-0.92,1.66-1.32a1.82,1.82,0,0,1,1,1.81c0,1.26.2,3.24,0.2,3.68,0,0.23.06,0.16,0.43,0.08s0.48,0.08.22,0.31a22.45,22.45,0,0,0-1.84,1.46,2.86,2.86,0,0,1-.34-2.22,19.34,19.34,0,0,0,0-2.87c0-.41-0.62-0.54-0.88-0.77a5.58,5.58,0,0,0-.73.63c0,0.54-.07,4.34,0,4.83-0.85,0-.77,0-1.26,0,0-.73,0-3.66-0.06-4.29a2.71,2.71,0,0,0-.9-1.44h0Zm-5.7,2.06c0.36-2.47,2.76-3.48,3.48-4a6.12,6.12,0,0,0,1.49,2.47c-0.81.67-2.68,2.22-3.39,2.76,0.39,0.72,1.87,1.23,2.37.69,0.37-.37.82-0.24,0.41,0.24a11.1,11.1,0,0,0-1.36,2.05c-1.08-.46-3.32-1.87-3-4.25h0ZM67.79,97.81a6.82,6.82,0,0,1,2.95-2.08c0.3,0.35.66,0.9,1.11,1.48a8.67,8.67,0,0,0-1.17,1.12c-0.2-.23-1.35-1.94-2.15-0.74a2.79,2.79,0,0,0,.59,3.65,3,3,0,0,0,2.48.57,7,7,0,0,0-.92,1.42,2.8,2.8,0,0,1-2.73-.79c-1.5-1.22-1-3.3-.16-4.62h0Zm6.46-3.28C74,94.17,73.94,93.84,73.43,94c-1.29.37-2.71,0.76-3.73,0.16s-2-.88-2.06-3.38a4.13,4.13,0,0,1,2.19-3.24c1-.57,2.7-0.2,3.48,0,0.37,0.12.66,0.08,0.68-.41,0-.26.42-0.2,0.41,0s0,3.29,0,3.54-0.51.26-.5,0a9.84,9.84,0,0,0-.24-1.56,2.18,2.18,0,0,0-3.81-.3,4.27,4.27,0,0,0-.57,2,4.21,4.21,0,0,0,.56,2c1.2,1.7,2.9,1.13,3.8-.26a2.85,2.85,0,0,0,.29-1.48c0-.22.48-0.24,0.48,0s0,2.3,0,2.49a1.21,1.21,0,0,0,.34.68c0.3,0.45,0,.81-0.46.25h0Zm1.11,1.79c0.56-.06,1,1.08,1.54,1.63a33.58,33.58,0,0,0-.14,3.86,0.58,0.58,0,0,0,.68.27c0.27-.27.45,0,0.21,0.22s-1.32,1.17-1.6,1.48a1.71,1.71,0,0,1-.58-1.31,2.78,2.78,0,0,0-1.71,1.15,2.13,2.13,0,0,1-1.36-1.73,2.31,2.31,0,0,1,1.06-1.72l-0.29-.24a3,3,0,0,1-.22-1.7,3.68,3.68,0,0,1,2.42-1.91h0Zm6.12-8.27a13.76,13.76,0,0,1-1.34,1A11.09,11.09,0,0,1,79.08,88a3.29,3.29,0,0,1-.54.34c0,0.44,0,4.45,0,4.9a5.93,5.93,0,0,1-1.45,0c0-.58,0-3.78,0-4.3s-0.61-.68-1.35-0.9a10.34,10.34,0,0,1,1.56-1.35,14.2,14.2,0,0,1,1.35.86,12.37,12.37,0,0,0,1.46-.93c0.3,0.35.86,0.93,1.08,1.19,0.29-.28.65,0,0.32,0.28h0ZM87.31,92a4.7,4.7,0,0,1-1.68.94c-1.76-.07-4-1.35-3.65-3.71a3.78,3.78,0,0,1,3.11-3.43c1,0.07,1.17.89,1.71,1.39-0.81.67-2.14,2-2.93,2.78a2.59,2.59,0,0,0,3,1.48c0.89-.2,1.18.17,0.4,0.56h0Zm7-4.29a18.51,18.51,0,0,1-1.75,1.48,1.1,1.1,0,0,1,.38.12c1.34,0.78,1.8,1.89.48,2.93a5.51,5.51,0,0,1-3.16,1.26,5.23,5.23,0,0,1-2.6-1c0.68-.64,1.42-1.34,1.95-1.79-0.83-.64-1.61-1.5-1-2.48a4.46,4.46,0,0,1,3.25-1.87,4,4,0,0,1,2.42,1.32h0Zm0.82,6.75,0.79,0.82v0.85l-0.59.53H94.83l-0.49-.5,0-1,0.8-.72h0Zm1.5-4c-1.84.07-1.37-.77-1.06-0.75,1.56,0.09,1.35.74,1.06,0.75h0Zm0,1.1c-1.85-.19-1.37-0.77-1.05-0.75,1.72,0.1,1.34.78,1.05,0.75h0Zm0.83,10.89-0.68.74-0.86.74a2.69,2.69,0,0,1-.92-1l0-3.33L94.13,99c-0.46.41-.83,0.23-0.42-0.14l1.54-1.42,0.36,0,0.67,1,0,3.54a1.6,1.6,0,0,0,1.17.46h0ZM90.55,111a2.82,2.82,0,0,1,1-2L91.4,109a3,3,0,0,1-.22-1.82,4.84,4.84,0,0,1,2.33-1.65c0.57-.06,1.41,1.17,1.9,1.72-0.14.16,0.17,3.55,0.17,3.87a0.67,0.67,0,0,0,.94.2c0.23-.3.45,0,0.23,0.24s-1.07.9-1.34,1.21A8.15,8.15,0,0,1,94,111.61a6.54,6.54,0,0,0-2.4,1.27,1.93,1.93,0,0,1-1-1.85h0ZM89.3,101a3.08,3.08,0,0,1,.88-3.15,21.79,21.79,0,0,1,1.76-1.37c0.53,0.32.94,0.55,1.21,0.68a0.93,0.93,0,0,1-.78.81c-0.85,0-1.51-.2-2,0.29s-0.1,1.89.47,2.42,1.6,0.93,1.82.45,0.7-.3.29,0.24a14.39,14.39,0,0,0-1,1.62,2.93,2.93,0,0,1-2.64-2h0Zm0.33,9.89L89,111.6l-0.64.65a2.71,2.71,0,0,1-.93-1l0-3.23-1-.52c-0.47.39-.83,0.22-0.42-0.13l1.53-1.43,0.37-.05,1,1.43,0,3.05c0.4,0.37,0,.36.8,0.5h0ZM92,109.45c-1.08.9,0.14,1.73,0.47,2a10.93,10.93,0,0,1,1.21-.4,1.38,1.38,0,0,1-.12-0.46c0-.16,0-0.52.06-0.91a2,2,0,0,1-1.62-.26h0Zm1.65-.11a7.7,7.7,0,0,0,0-1.37c0.07-.4-1.19-1.16-1.39-1.16s-0.26.14-.56,0.62a1.55,1.55,0,0,0,.1,1.14,2.53,2.53,0,0,0,1.84.78h0ZM91.56,89.18l0.81-.65a4.61,4.61,0,0,0-1.84-1c-0.4,0-1.22.31-.9,0.73a2,2,0,0,0,1.29,1,2.15,2.15,0,0,0,.65,0h0ZM91,90.39c-0.6.47-1.13,0.9-1.42,1.14,0.22,0.41,1.6,1.41,2.38,1.06s1.12-1.11.42-1.51A13.24,13.24,0,0,0,91,90.39h0Zm-7.24-.94c0.36-.26,1.21-1.24,1.77-1.77a2.64,2.64,0,0,1-1.09-1.12c-1,.78-1.16,1.32-0.67,2.89h0ZM75.45,102c0-.17,0-0.32,0-0.5s0-.72,0-1.27c-0.63.39-.89,0.69-1.54,0.31-1.07.86,0.56,1.4,0.91,1.69a2.78,2.78,0,0,1,.64-0.22h0Zm0-2.2a8.92,8.92,0,0,0-.07-1.06,2.07,2.07,0,0,0-.92-1.33,2,2,0,0,0-1,.91,1.41,1.41,0,0,0,.14,1.34c0.65,0.73.95,0.75,1.89,0.14h0Zm-4.71,6.9c-2,1.25-1.68,2.63-1,3.47a21.43,21.43,0,0,0,2.22-1.69,5.46,5.46,0,0,1-1.22-1.78h0Zm-12.36,4.87h4.53v-4.46H58.36v4.46h0Zm0-15.54h4.53V91.53H58.36V96h0ZM53,105a3.9,3.9,0,1,0,0,7.8c5.15,0,5.12-7.8,0-7.8h0Zm0-15.58c-5.09,0-5.2,7.8,0,7.8s5.12-7.8,0-7.8h0ZM98.79,135a3.24,3.24,0,0,0-1.55-1.66c-3-1.45-8.87,1.68-8.81-2.88,0,0-2.08,1.55-1.13,3.17,2.17,3.7,8.21-.89,11.49,1.37h0ZM71.48,172.09c-1.7,1.7-2.29,1.74-2.19,2.47a8.56,8.56,0,0,0,1.93,2.65c1,0.82,1.37,1.56.64-.83a14.69,14.69,0,0,1-.37-4.29h0ZM59.73,140L59.82,140c0,3.5-9.86,8.53-14.07,10.79,6.52,2.25,12.69-3.8,11.94-2.33-0.88,1.72-8.84,8.58-12.31,12.25,2.7,0.75,5.18-1.43,7.14-3.1,2.14-1.82,5.71-6.39,5.17-4.12-5.78,7.14-10.34,22-7.53,22.91,1.61-3.36,8.26-20.49,8.68-20.41s-0.52,4.52-.67,7.46c-0.33,6.46-.37,9.51,1,15.87,0.72-1,1.41-1,2.55-.88,0.14-.62.1-0.46-0.62-1.4-1.85-2.45.28-5.79-.61-7.82-0.74-1.7-1.16-.34-1.5-2.11a5.79,5.79,0,0,1,2.46-.71c0.6-6.63,2.82-10,2-5.82-0.42,2.12-1.07,5.63-.76,5.73a2.86,2.86,0,0,1,.6.24c0.12,0.06,11.14-18.06,5-5.5a69.28,69.28,0,0,1-4.06,6.09,6.64,6.64,0,0,1,1.77,2.53c0,0.17,14.77-19.4,4.73-3.63-0.62,1-3.63,4.2-4.4,5.13-0.1.13,0.28,3.67,0.28,3.67a25.34,25.34,0,0,0,4.74-4.57c-0.14-2,.33-1.73.44-3.69,0.47-.3,1.08.53,1.82,1.2,0.35,0.31,10.12-16.69,4-3.94a30.09,30.09,0,0,1-3.26,4.67A17.61,17.61,0,0,1,76.12,172c0,0.06,13.06-18.8,5.14-4.54-0.62,1.12-4.55,5.85-4.5,6,1,2.36,1.81,4.66,1.81,4.65a8.39,8.39,0,0,1,3.2-8.45c0.49,3.27,1.37,3.41,2.51,4.41,0.5,0.44,1.43,2.31,1.54.72,0.32-4.65-1.19-4.54-2.31-6.51-0.27-.47-0.22-1.54,0-1.47,9.39,0.28,9.08,9.07,10.64,9.07a8.64,8.64,0,0,1-.06-6.25c-2.52-1.78-1.89-4.83-1.41-6.16-2.83-2.92-1.2-9.14.15-10.45-1.82-2.64.42-4.45-.06-6.07-0.76-5.74-5.88-4-7-9.5-0.8,1-2.28,4.28-1.59,5.38,0.8,1.26,2.5,1.37,2.61,2.29a3,3,0,0,1-.11,1.72c-1,.17-1.63-0.71-2.62-1.11-2-.79-6.8,2.51-7.09-0.4-0.18-1.83.63-.51,0.54-2.21s-1-.52-1-2.77c0-1.65,2-2.17,2.13-2.84,0.35-1.64,3.33,2.41,5.08-1.88-1,.14-3.07-0.57-2.88-1.57,0.52-2.69.56-9.19-5.52-7.79-2.18.5-8.26,3.7-9.11,0.22-2.19,3.88,2.14,3.2,3.45,3.12a3,3,0,0,1-2.79.6c-3.42,2.26-15.94,10.21-19.56,12.21,4.85,2.26,12.32-2.45,12.42-2.45h0Zm3.57,43.37a20,20,0,0,1-3.55-1.57,37.46,37.46,0,0,0,2.77,7.57c0.82,1.55,2.24-2.19.78-6h0Z" transform="translate(-40.54 -72.78)"/></svg>